<svg width="76" height="46" viewBox="0 0 76 46" fill="none" xmlns="http://www.w3.org/2000/svg">
<path d="M30.4972 32.0724C30.2794 32.0724 30.0704 31.9858 29.9163 31.8316L22.0357 23.951C21.8816 23.7969 21.7949 23.588 21.7949 23.3689C21.7949 23.1497 21.8816 22.9421 22.0357 22.7867L29.9163 14.906C30.0704 14.7519 30.2794 14.6653 30.4972 14.6653C30.7151 14.6653 30.924 14.7519 31.0781 14.906L38.9587 22.7867C39.2798 23.1077 39.2798 23.6287 38.9587 23.9497L31.0781 31.8304C30.9253 31.9858 30.7151 32.0724 30.4972 32.0724ZM23.7797 23.3689L30.4972 30.0863L37.2147 23.3689L30.4972 16.6514L23.7797 23.3689Z" fill="#85979B" stroke="#85979B" stroke-width="0.963286"/>
<path d="M38.3793 24.1905C38.1615 24.1905 37.9526 24.1039 37.7972 23.9497L29.9166 16.0692C29.5955 15.7481 29.5955 15.2271 29.9166 14.906L37.7972 7.02546C37.9513 6.87131 38.1602 6.78467 38.3793 6.78467C38.5985 6.78467 38.8061 6.87131 38.9615 7.02546L46.8421 14.906C47.1632 15.2271 47.1632 15.7481 46.8421 16.0692L38.9615 23.9497C38.8061 24.1039 38.5972 24.1905 38.3793 24.1905ZM31.6606 15.4882L38.3781 22.2057L45.0956 15.4882L38.3781 8.77075L31.6606 15.4882Z" fill="#85979B" stroke="#85979B" stroke-width="0.963286"/>
<path d="M46.2582 16.3099C46.048 16.3099 45.8378 16.2297 45.6761 16.0691L37.7955 8.18854C37.4744 7.86751 37.4744 7.34648 37.7955 7.02545L41.7358 3.08516C44.2289 0.592057 48.2864 0.592057 50.7807 3.08516C53.2738 5.57826 53.2738 9.63576 50.7807 12.1289L46.8404 16.0691C46.6786 16.2297 46.4684 16.3099 46.2582 16.3099ZM39.5408 7.60637L46.2582 14.3239L49.6176 10.9645C50.5145 10.0676 51.0088 8.87394 51.0088 7.6051C51.0088 6.33625 50.5145 5.14383 49.6176 4.2457C47.7653 2.39339 44.7512 2.39339 42.9001 4.2457L39.5408 7.60637Z" fill="#85979B" stroke="#85979B" stroke-width="0.963286"/>
<path d="M30.4965 16.3099C30.2863 16.3099 30.0761 16.2297 29.9156 16.0691L25.9753 12.1289C23.4822 9.63576 23.4822 5.57826 25.9753 3.08516C28.4684 0.592057 32.5259 0.592057 35.019 3.08516L38.9593 7.02545C39.2803 7.34648 39.2803 7.86751 38.9593 8.18854L31.0787 16.0691C30.9182 16.2297 30.7067 16.3099 30.4965 16.3099ZM27.1384 10.9657L30.4978 14.3251L37.2153 7.60765L33.8559 4.24825C32.0036 2.39594 28.9907 2.39594 27.1384 4.24825C25.2861 6.09929 25.2861 9.11343 27.1384 10.9657Z" fill="#85979B" stroke="#85979B" stroke-width="0.963286"/>
<path d="M46.2602 45.5227C44.6219 45.5227 42.9849 44.8997 41.7377 43.6525L37.7974 39.7122C37.4764 39.3912 37.4764 38.8702 37.7974 38.5491L45.678 30.6685C45.999 30.3475 46.5201 30.3475 46.8411 30.6685L50.7814 34.6088C53.2745 37.1019 53.2745 41.1594 50.7814 43.6525C49.5355 44.8997 47.8972 45.5227 46.2602 45.5227ZM39.5427 39.1313L42.9021 42.4907C44.7544 44.343 47.7673 44.343 49.6196 42.4907C51.4719 40.6384 51.4719 37.6255 49.6196 35.7732L46.2602 32.4138L39.5427 39.1313Z" fill="#85979B" stroke="#85979B" stroke-width="0.963286"/>
<path d="M30.4978 45.5266C28.7894 45.5266 27.183 44.8616 25.9753 43.6539C23.4822 41.1608 23.4822 37.1033 25.9753 34.6102L29.9156 30.6699C30.2366 30.3488 30.7577 30.3488 31.0787 30.6699L38.9593 38.5505C39.2803 38.8715 39.2803 39.3925 38.9593 39.7136L35.019 43.6539C33.8126 44.8603 32.2061 45.5266 30.4978 45.5266ZM27.1397 35.772C25.2874 37.6243 25.2874 40.6372 27.1397 42.4895C28.0365 43.3863 29.2302 43.8806 30.4991 43.8806C31.7679 43.8806 32.9603 43.3863 33.8584 42.4895L37.2178 39.1301L30.5003 32.4126L27.1397 35.772Z" fill="#85979B" stroke="#85979B" stroke-width="0.963286"/>
<path d="M38.3793 39.953C38.1615 39.953 37.9526 39.8663 37.7972 39.7122L29.9166 31.8316C29.5955 31.5106 29.5955 30.9895 29.9166 30.6685L37.7972 22.7879C37.9513 22.6338 38.1602 22.5471 38.3793 22.5471C38.5985 22.5471 38.8061 22.6338 38.9615 22.7879L46.8421 30.6685C47.1632 30.9895 47.1632 31.5106 46.8421 31.8316L38.9615 39.7122C38.8061 39.8663 38.5972 39.953 38.3793 39.953ZM31.6606 31.2494L38.3781 37.9669L45.0956 31.2494L38.3781 24.5319L31.6606 31.2494Z" fill="#85979B" stroke="#85979B" stroke-width="0.963286"/>
<path d="M46.2602 32.0724C46.05 32.0724 45.8398 31.9921 45.678 31.8316L37.7974 23.951C37.4764 23.6299 37.4764 23.1089 37.7974 22.7879L45.678 14.9073C45.999 14.5862 46.5201 14.5862 46.8411 14.9073L54.7217 22.7879C54.8759 22.942 54.9625 23.151 54.9625 23.3701C54.9625 23.5892 54.8759 23.7968 54.7217 23.9523L46.8411 31.8329C46.6806 31.9921 46.4704 32.0724 46.2602 32.0724ZM39.5427 23.3688L46.2602 30.0863L52.9777 23.3688L46.2602 16.6513L39.5427 23.3688Z" fill="#85979B" stroke="#85979B" stroke-width="0.963286"/>
<path d="M10.5577 32.5451C8.20726 32.5451 5.85558 31.6508 4.06569 29.8609C0.485916 26.2811 0.485916 20.4566 4.06569 16.8768C7.64546 13.2971 13.4699 13.2971 17.0484 16.8768L22.9582 22.7867C23.2792 23.1077 23.2792 23.6287 22.9582 23.9498L17.0484 29.8596C15.2585 31.6508 12.9081 32.5451 10.5577 32.5451ZM5.2288 28.6977C8.1665 31.6355 12.9476 31.6367 15.8853 28.6977L21.2142 23.3689L15.8853 18.04C12.9476 15.1023 8.1665 15.1023 5.2288 18.04C2.29109 20.9777 2.29109 25.7588 5.2288 28.6977Z" fill="#85979B" stroke="#85979B" stroke-width="0.963286"/>
<path d="M66.1992 32.545C63.8488 32.545 61.4971 31.6507 59.7072 29.8608L53.7974 23.951C53.4764 23.63 53.4764 23.1089 53.7974 22.7879L59.7072 16.8781C63.287 13.2983 69.1114 13.2983 72.6912 16.8781C74.425 18.6119 75.3805 20.9178 75.3805 23.3701C75.3805 25.8224 74.425 28.1283 72.6912 29.8621C70.9013 31.6507 68.5509 32.545 66.1992 32.545ZM55.5427 23.3688L60.8716 28.6977C63.8093 31.6354 68.5904 31.6354 71.5281 28.6977C72.9511 27.2747 73.7359 25.3816 73.7359 23.3688C73.7359 21.356 72.9524 19.4629 71.5281 18.0399C68.5904 15.1022 63.8093 15.1022 60.8716 18.0399L55.5427 23.3688Z" fill="#85979B" stroke="#85979B" stroke-width="0.963286"/>
</svg>
