<svg width="74" height="47" viewBox="0 0 74 47" fill="none" xmlns="http://www.w3.org/2000/svg">
<path d="M23.0018 46.219C10.3192 46.219 0 35.8998 0 23.2171C0 10.5345 10.3192 0.215332 23.0018 0.215332C35.6845 0.215332 46.0036 10.5345 46.0036 23.2171H43.3238C43.3238 12.011 34.208 2.89517 23.0018 2.89517C11.7957 2.89517 2.67985 12.011 2.67985 23.2171C2.67985 34.4233 11.7957 43.5391 23.0018 43.5391C27.9478 43.5391 32.7126 41.7435 36.42 38.4796L38.1912 40.4915C33.9916 44.1854 28.5995 46.219 23.0018 46.219Z" fill="#85979B"/>
<path d="M23.001 41.1109C13.1334 41.1109 5.10742 33.0848 5.10742 23.2173C5.10742 13.3497 13.1334 5.32367 23.001 5.32367C32.8659 5.32367 40.8947 13.3497 40.8947 23.2173H38.2148C38.2148 14.8289 31.3894 8.00351 23.001 8.00351C14.6126 8.00351 7.78728 14.8289 7.78728 23.2173C7.78728 31.6057 14.6126 38.431 23.001 38.431C26.5787 38.431 30.0563 37.1655 32.7902 34.8642L34.5155 36.914C31.2975 39.6209 27.2087 41.1109 23.001 41.1109Z" fill="#85979B"/>
<path d="M23.0022 36.0023C15.9524 36.0023 10.2168 30.2667 10.2168 23.2168C10.2168 16.167 15.9524 10.4315 23.0022 10.4315C30.052 10.4315 35.7876 16.167 35.7876 23.2168L35.7849 23.4548L33.105 23.4062L33.1077 23.2168C33.1077 17.6462 28.5755 13.1113 23.0022 13.1113C17.4289 13.1113 12.8966 17.6435 12.8966 23.2168C12.8966 28.7875 17.4289 33.3224 23.0022 33.3224C25.7091 33.3224 28.2537 32.2651 30.1629 30.3478L32.0612 32.238C29.6464 34.6637 26.4284 36.0023 23.0022 36.0023Z" fill="#85979B"/>
<path d="M23.0014 18.2196C20.2458 18.2196 18.0041 20.4614 18.0041 23.217C18.0041 25.9725 20.2458 28.2143 23.0014 28.2143C25.757 28.2143 27.9987 25.9725 27.9987 23.217C27.996 20.4614 25.757 18.2196 23.0014 18.2196ZM23.0014 30.8942C18.7693 30.8942 15.3242 27.4517 15.3242 23.217C15.3242 18.9849 18.7666 15.5398 23.0014 15.5398C27.2334 15.5398 30.6786 18.9849 30.6786 23.217C30.6759 27.449 27.2334 30.8942 23.0014 30.8942Z" fill="#85979B"/>
<path d="M50.9979 46.2187C38.3153 46.2187 27.9961 35.8995 27.9961 23.2169H30.6759C30.6759 34.423 39.7918 43.5389 50.9979 43.5389C62.2041 43.5389 71.3199 34.423 71.3199 23.2169C71.3199 12.0107 62.2041 2.89491 50.9979 2.89491C46.2791 2.89491 41.6793 4.54988 38.0503 7.55424L36.3412 5.49094C40.4516 2.08907 45.6571 0.217773 50.9979 0.217773C63.6806 0.217773 73.9997 10.5369 73.9997 23.2196C73.9997 35.8995 63.6833 46.2187 50.9979 46.2187Z" fill="#85979B"/>
<path d="M50.9991 41.1109C41.1342 41.1109 33.1055 33.0848 33.1055 23.2173H35.7853C35.7853 31.6057 42.6107 38.431 50.9991 38.431C59.3875 38.431 66.2128 31.6057 66.2128 23.2173C66.2128 14.8289 59.3875 8.00351 50.9991 8.00351C47.5621 8.00351 44.3197 9.12035 41.6237 11.235L39.9714 9.12576C43.1461 6.6379 46.959 5.32367 51.0018 5.32367C60.8667 5.32367 68.8954 13.3497 68.8954 23.2173C68.8927 33.0848 60.8667 41.1109 50.9991 41.1109Z" fill="#85979B"/>
<path d="M50.9983 36.0023C43.9485 36.0023 38.2129 30.2667 38.2129 23.2168H40.8928C40.8928 28.7875 45.425 33.3224 50.9983 33.3224C56.5716 33.3224 61.1038 28.7902 61.1038 23.2168C61.1038 17.6462 56.5716 13.1113 50.9983 13.1113C48.5159 13.1113 46.1308 14.0199 44.2784 15.6695L42.4963 13.6684C44.8382 11.5807 47.8587 10.4315 50.9983 10.4315C58.0481 10.4315 63.7837 16.167 63.7837 23.2168C63.7837 30.2667 58.0481 36.0023 50.9983 36.0023Z" fill="#85979B"/>
<path d="M50.9995 18.2196C48.2439 18.2196 46.0021 20.4614 46.0021 23.217C46.0021 25.9725 48.2439 28.2143 50.9995 28.2143C53.755 28.2143 55.9968 25.9725 55.9968 23.217C55.9968 20.4614 53.755 18.2196 50.9995 18.2196ZM50.9995 30.8942C46.7674 30.8942 43.3223 27.4517 43.3223 23.217C43.3223 18.9849 46.7647 15.5398 50.9995 15.5398C55.2315 15.5398 58.6767 18.9849 58.6767 23.217C58.6767 27.449 55.2342 30.8942 50.9995 30.8942Z" fill="#85979B"/>
</svg>
