<svg width="75" height="69" viewBox="0 0 75 69" fill="none" xmlns="http://www.w3.org/2000/svg">
<path d="M74.4062 34.1431C72.3276 34.0194 70.2517 33.9121 68.1731 33.8076C67.9917 21.3084 57.7745 11.193 45.2313 11.193C43.8978 11.193 42.5918 11.314 41.3188 11.534C40.2355 11.347 39.1274 11.237 38.0001 11.2095C37.8407 7.53068 37.6455 3.85461 37.4062 0.178528C37.1698 3.85461 36.9746 7.53068 36.8123 11.2095C35.6851 11.237 34.577 11.347 33.4937 11.534C32.2207 11.314 30.9174 11.193 29.5812 11.193C17.0407 11.193 6.82083 21.3084 6.63937 33.8076C4.56075 33.9094 2.48212 34.0194 0.40625 34.1431C2.48487 34.2668 4.56075 34.3768 6.63937 34.4785C6.82083 46.9777 17.038 57.0904 29.5812 57.0904C30.9147 57.0904 32.2207 56.9694 33.4937 56.7495C34.5743 56.9364 35.6823 57.0464 36.8096 57.0739C36.9718 60.7527 37.167 64.4288 37.4062 68.1049C37.6455 64.4288 37.8407 60.7527 38.0029 57.0739C39.1302 57.0436 40.2382 56.9364 41.3188 56.7495C42.5918 56.9694 43.8951 57.0904 45.2313 57.0904C57.7745 57.0904 67.9917 46.975 68.1731 34.4758C70.2517 34.3768 72.3304 34.2668 74.4062 34.1431ZM66.0478 33.7059C64.1451 33.6179 62.2452 33.5382 60.3426 33.4694C60.0841 24.6243 54.8051 17.0165 47.2522 13.4174C57.6481 14.4237 65.8278 23.1038 66.0478 33.7059ZM41.3215 54.5966C41.0026 54.5361 40.6864 54.4674 40.3757 54.3931C47.3539 50.6593 52.1848 43.4281 52.5147 35.0559C54.4174 35.0092 56.3173 34.9542 58.22 34.8909C57.868 44.7039 50.7028 52.8067 41.3215 54.5966ZM16.6008 34.8937C18.5007 34.9569 20.4033 35.0119 22.306 35.0587C22.6359 43.4281 27.4668 50.662 34.445 54.3931C34.1316 54.4674 33.8154 54.5361 33.4992 54.5966C24.1152 52.8067 16.95 44.7039 16.6008 34.8937ZM33.4965 13.6896C33.8154 13.7501 34.1316 13.8188 34.4423 13.893C27.4641 17.6241 22.6332 24.858 22.3033 33.2275C20.4006 33.2742 18.5007 33.3292 16.598 33.3925C16.95 23.5823 24.1152 15.4822 33.4965 13.6896ZM36.3147 33.0488C32.3527 33.0543 28.3906 33.0983 24.4286 33.1808C24.7943 25.1632 29.7159 18.3197 36.6584 15.1715C36.4439 21.127 36.3284 27.0879 36.3147 33.0488ZM36.3147 35.2401C36.3257 41.201 36.4412 47.1592 36.6556 53.1174C29.7159 49.9665 24.797 43.123 24.4286 35.1082C28.3906 35.1879 32.3527 35.2319 36.3147 35.2401ZM38.5033 35.2374C42.4653 35.2291 46.4273 35.1851 50.3894 35.1027C50.0237 43.1202 45.1048 49.9637 38.1624 53.1146C38.3768 47.1592 38.4923 41.1983 38.5033 35.2374ZM38.5033 33.0488C38.4895 27.0879 38.3741 21.127 38.1596 15.1715C45.1021 18.3225 50.0237 25.166 50.3894 33.1835C46.4273 33.101 42.4653 33.057 38.5033 33.0488ZM52.512 33.233C52.1821 24.8608 47.3512 17.6268 40.373 13.8958C40.6864 13.8215 41.0026 13.7528 41.3188 13.6923C50.7028 15.4822 57.868 23.5877 58.2145 33.4007C56.3145 33.3347 54.4146 33.2797 52.512 33.233ZM27.5658 13.4174C20.0157 17.0165 14.7366 24.6216 14.4754 33.4667C12.5728 33.5354 10.6701 33.6179 8.77023 33.7059C8.99294 23.1011 17.1699 14.4209 27.5658 13.4174ZM8.77023 34.583C10.6729 34.671 12.5728 34.7507 14.4754 34.8222C14.7339 43.6673 20.0157 51.2725 27.5658 54.8716C17.1699 53.8652 8.99294 45.1851 8.77023 34.583ZM47.2522 54.8716C54.8023 51.2725 60.0841 43.6646 60.3426 34.8195C62.2452 34.7507 64.1479 34.6682 66.0478 34.583C65.8278 45.1851 57.6481 53.8652 47.2522 54.8716Z" fill="#85979B"/>
</svg>
