<svg width="74" height="54" viewBox="0 0 74 54" fill="none" xmlns="http://www.w3.org/2000/svg">
<path d="M28.5489 52.2977L31.7354 49.1113L34.9219 52.2977C36.0675 53.4434 37.9325 53.4434 39.0781 52.2977L42.2646 49.1113L45.4511 52.2977C46.5967 53.4434 48.4617 53.4434 49.6073 52.2977L73.1408 28.7643C74.2864 27.6187 74.2864 25.7537 73.1408 24.608L49.6073 1.07456C48.4617 -0.0710766 46.5967 -0.0710766 45.4511 1.07456L42.2646 4.26102L39.0781 1.07456C37.9325 -0.0710766 36.0675 -0.0710766 34.9219 1.07456L31.7354 4.26102L28.5489 1.07456C27.4033 -0.0710766 25.5383 -0.0710766 24.3927 1.07456L0.859226 24.608C-0.286409 25.7537 -0.286409 27.6187 0.859226 28.7643L24.3927 52.2977C25.5383 53.4434 27.4033 53.4434 28.5489 52.2977ZM26.4708 50.2196L4.4027 28.1542H10.9222C11.0474 28.3726 11.1992 28.5778 11.3857 28.7616L29.6573 47.0331L26.4708 50.2196ZM52.0824 28.7616C52.2689 28.5751 52.4208 28.37 52.546 28.1542H59.0628L42.2619 44.955L39.0755 41.7686L52.0824 28.7616ZM36.9973 39.6904L25.4584 28.1542H48.5336L36.9973 39.6904ZM52.546 25.2155C52.4208 24.997 52.2689 24.7919 52.0824 24.608L39.0755 11.6011L42.2619 8.41461L59.0628 25.2155H52.546ZM48.5363 25.2155H25.4637L37 13.6792L48.5363 25.2155ZM21.9149 24.6054C21.7284 24.7919 21.5766 24.997 21.4513 25.2128H14.9346L31.7354 8.41195L34.9219 11.5984L21.9149 24.6054ZM21.4513 28.1542C21.5766 28.3726 21.7284 28.5778 21.9149 28.7616L34.9219 41.7686L31.7354 44.955L14.9319 28.1542H21.4513ZM36.9973 50.2196L33.8109 47.0331L36.9973 43.8467L40.1838 47.0331L36.9973 50.2196ZM44.3401 47.0331L62.6116 28.7616C62.7981 28.5751 62.95 28.37 63.0752 28.1542H69.592L47.5265 50.2196L44.3401 47.0331ZM47.5265 3.15002L69.592 25.2155H63.0752C62.95 24.997 62.7981 24.7919 62.6116 24.608L44.3401 6.33648L47.5265 3.15002ZM36.9973 3.15002L40.1838 6.33648L36.9973 9.52294L33.8109 6.33648L36.9973 3.15002ZM29.6573 6.33648L11.3857 24.608C11.1992 24.7945 11.0474 24.9997 10.9222 25.2155H4.40536L26.4708 3.15002L29.6573 6.33648Z" fill="#85979B"/>
</svg>
